<?xml version="1.0" encoding="UTF-8" standalone="no"?>
<svg
   version="1.1"
   x="0px"
   y="0px"
   viewBox="0 0 107.123 107.123"
   enable-background="new 0 0 90 90"
   xml:space="preserve"
   id="svg49"
   sodipodi:docname="favicon.svg"
   width="107.123"
   height="107.123"
   inkscape:version="1.1.2 (0a00cf5339, 2022-02-04)"
   xmlns:inkscape="http://www.inkscape.org/namespaces/inkscape"
   xmlns:sodipodi="http://sodipodi.sourceforge.net/DTD/sodipodi-0.dtd"
   xmlns="http://www.w3.org/2000/svg"
   xmlns:svg="http://www.w3.org/2000/svg"><defs
     id="defs53" /><sodipodi:namedview
     id="namedview51"
     pagecolor="#ffffff"
     bordercolor="#000000"
     borderopacity="0.25"
     inkscape:pageshadow="2"
     inkscape:pageopacity="0.0"
     inkscape:pagecheckerboard="0"
     showgrid="false"
     inkscape:zoom="7.04"
     inkscape:cx="23.366477"
     inkscape:cy="70.3125"
     inkscape:window-width="1920"
     inkscape:window-height="1007"
     inkscape:window-x="0"
     inkscape:window-y="0"
     inkscape:window-maximized="1"
     inkscape:current-layer="svg49" /><circle
     style="fill:#fff7ed;fill-opacity:1;stroke:none;stroke-width:4.07328;stroke-linecap:round;stroke-linejoin:round;stroke-miterlimit:4;stroke-dasharray:4.07328, 16.2932;stroke-dashoffset:0;stroke-opacity:0.999853"
     id="path363"
     cx="53.561501"
     cy="53.561501"
     r="53.561501" /><g
     id="g43"
     transform="translate(36.57383,-0.28188085)"
     style="fill:#f97316;fill-opacity:1"><g
       id="g27"
       style="fill:#f97316;fill-opacity:1" /><g
       id="g1515"
       transform="translate(-28.012137,8.8426243)"
       style="fill:#f97316;fill-opacity:1"><path
         d="M 37.225,70.993 C 28.27,70.993 21.262,68.264 16.392,62.885 8.07,53.688 9.313,40.196 9.37,39.626 c 0.155,-1.547 1.456,-2.724 3.01,-2.724 h 17.35 l -5.063,-5.063 c -0.653,-0.653 -0.972,-1.568 -0.866,-2.485 0.106,-0.917 0.624,-1.736 1.408,-2.223 L 37.417,19.538 22.453,10.626 C 21.017,9.771 20.547,7.914 21.402,6.479 22.257,5.044 24.113,4.573 25.549,5.428 l 19.234,11.455 c 0.907,0.541 1.467,1.515 1.477,2.57 0.011,1.056 -0.531,2.041 -1.427,2.598 l -13.192,8.205 7.533,7.533 c 0.865,0.865 1.124,2.167 0.656,3.297 -0.468,1.13 -1.572,1.868 -2.795,1.868 h -21.69 c 0.115,3.826 0.997,10.88 5.56,15.9 3.673,4.041 9.164,6.09 16.321,6.09 1.671,0 3.025,1.354 3.025,3.025 0,1.671 -1.355,3.024 -3.026,3.024 z"
         id="path25"
         style="fill:#f97316;fill-opacity:1" /><g
         id="g41"
         style="fill:#f97316;fill-opacity:1"><g
           id="g31"
           style="fill:#f97316;fill-opacity:1"><path
             d="m 49.971,68.876 c -0.774,0 -1.548,-0.295 -2.139,-0.886 -1.183,-1.182 -1.183,-3.097 -10e-4,-4.278 5.383,-5.383 5.383,-14.142 10e-4,-19.523 -1.183,-1.181 -1.183,-3.097 0,-4.279 1.181,-1.181 3.097,-1.181 4.277,0 7.742,7.742 7.742,20.338 10e-4,28.081 -0.59,0.59 -1.365,0.885 -2.139,0.885 z"
             id="path29"
             style="fill:#f97316;fill-opacity:1" /></g><g
           id="g35"
           style="fill:#f97316;fill-opacity:1"><path
             d="m 58.549,76.242 c -0.774,0 -1.549,-0.295 -2.139,-0.886 -1.183,-1.182 -1.183,-3.097 0,-4.278 4.574,-4.575 7.094,-10.658 7.094,-17.128 0,-6.471 -2.52,-12.554 -7.094,-17.128 -1.183,-1.182 -1.183,-3.098 0,-4.279 1.181,-1.181 3.097,-1.181 4.277,0 5.719,5.718 8.867,13.32 8.867,21.407 0,8.086 -3.148,15.688 -8.867,21.406 -0.589,0.591 -1.364,0.886 -2.138,0.886 z"
             id="path33"
             style="fill:#f97316;fill-opacity:1" /></g><g
           id="g39"
           style="fill:#f97316;fill-opacity:1"><path
             d="m 66.094,85 c -0.773,0 -1.549,-0.296 -2.139,-0.887 -1.182,-1.181 -1.182,-3.097 0,-4.278 6.914,-6.914 10.722,-16.107 10.722,-25.885 0,-9.779 -3.807,-18.972 -10.721,-25.886 -1.183,-1.181 -1.183,-3.097 0,-4.278 1.18,-1.181 3.097,-1.181 4.277,0 8.058,8.057 12.495,18.769 12.494,30.164 0,11.394 -4.437,22.106 -12.494,30.163 C 67.643,84.704 66.868,85 66.094,85 Z"
             id="path37"
             style="fill:#f97316;fill-opacity:1" /></g></g></g></g></svg>
