<svg xmlns="http://www.w3.org/2000/svg" xmlns:xlink="http://www.w3.org/1999/xlink" version="1.1" x="0px" y="0px" viewBox="0 0 90 112.5" enable-background="new 0 0 90 90" xml:space="preserve"><g><g><path d="M37.225,70.993c-8.955,0-15.963-2.729-20.833-8.108C8.07,53.688,9.313,40.196,9.37,39.626    c0.155-1.547,1.456-2.724,3.01-2.724h17.35l-5.063-5.063c-0.653-0.653-0.972-1.568-0.866-2.485s0.624-1.736,1.408-2.223    l12.208-7.593l-14.964-8.912c-1.436-0.855-1.906-2.712-1.051-4.147s2.711-1.906,4.147-1.051l19.234,11.455    c0.907,0.541,1.467,1.515,1.477,2.57c0.011,1.056-0.531,2.041-1.427,2.598l-13.192,8.205l7.533,7.533    c0.865,0.865,1.124,2.167,0.656,3.297c-0.468,1.13-1.572,1.868-2.795,1.868h-21.69c0.115,3.826,0.997,10.88,5.56,15.9    c3.673,4.041,9.164,6.09,16.321,6.09c1.671,0,3.025,1.354,3.025,3.025S38.896,70.993,37.225,70.993z"/></g><g><g><path d="M49.971,68.876c-0.774,0-1.548-0.295-2.139-0.886c-1.183-1.182-1.183-3.097-0.001-4.278     c5.383-5.383,5.383-14.142,0.001-19.523c-1.183-1.181-1.183-3.097,0-4.279c1.181-1.181,3.097-1.181,4.277,0     c7.742,7.742,7.742,20.338,0.001,28.081C51.52,68.581,50.745,68.876,49.971,68.876z"/></g><g><path d="M58.549,76.242c-0.774,0-1.549-0.295-2.139-0.886c-1.183-1.182-1.183-3.097,0-4.278     c4.574-4.575,7.094-10.658,7.094-17.128c0-6.471-2.52-12.554-7.094-17.128c-1.183-1.182-1.183-3.098,0-4.279     c1.181-1.181,3.097-1.181,4.277,0c5.719,5.718,8.867,13.32,8.867,21.407c0,8.086-3.148,15.688-8.867,21.406     C60.098,75.947,59.323,76.242,58.549,76.242z"/></g><g><path d="M66.094,85c-0.773,0-1.549-0.296-2.139-0.887c-1.182-1.181-1.182-3.097,0-4.278c6.914-6.914,10.722-16.107,10.722-25.885     c0-9.779-3.807-18.972-10.721-25.886c-1.183-1.181-1.183-3.097,0-4.278c1.18-1.181,3.097-1.181,4.277,0     c8.058,8.057,12.495,18.769,12.494,30.164c0,11.394-4.437,22.106-12.494,30.163C67.643,84.704,66.868,85,66.094,85z"/></g></g></g><text x="0" y="105" fill="#000000" font-size="5px" font-weight="bold" font-family="'Helvetica Neue', Helvetica, Arial-Unicode, Arial, Sans-serif">Created by Deivid Sáenz</text><text x="0" y="110" fill="#000000" font-size="5px" font-weight="bold" font-family="'Helvetica Neue', Helvetica, Arial-Unicode, Arial, Sans-serif">from the Noun Project</text></svg>